<mxfile host="app.diagrams.net" modified="2020-12-21T17:01:13.365Z" agent="5.0 (Windows NT 10.0; Win64; x64) AppleWebKit/537.36 (KHTML, like Gecko) Chrome/87.0.4280.88 Safari/537.36" etag="p6jBkf2BR_6c6oWDy_S_" version="14.1.1" type="github">
  <diagram id="IGmzV7Nyd5szp8fiv_cl" name="Page-1">
    <mxGraphModel dx="2214" dy="4460" grid="1" gridSize="10" guides="1" tooltips="1" connect="1" arrows="1" fold="1" page="1" pageScale="1" pageWidth="827" pageHeight="1169" math="0" shadow="0">
      <root>
        <mxCell id="0" />
        <mxCell id="1" parent="0" />
        <mxCell id="ljJuRXjwJsTKUHpfunZc-2" value="&lt;h1&gt;Zu behandeln in Version 0.1&lt;/h1&gt;&lt;p&gt;&lt;/p&gt;&lt;ul&gt;&lt;li&gt;Auschwitz&lt;/li&gt;&lt;li&gt;Buchenwald&lt;/li&gt;&lt;li&gt;Dachau&lt;/li&gt;&lt;li&gt;Börgermoor&lt;/li&gt;&lt;li&gt;Bergen Belsen&lt;/li&gt;&lt;li&gt;Treblinka&lt;/li&gt;&lt;li&gt;Nürnberger Prozesse&lt;/li&gt;&lt;li&gt;Auschwitz Prozesse&lt;/li&gt;&lt;li&gt;Lebensborn&lt;/li&gt;&lt;li&gt;Reichspogromnacht&lt;/li&gt;&lt;li&gt;Ghettos&lt;/li&gt;&lt;li&gt;Wannenseekonferenz&lt;/li&gt;&lt;li&gt;Kulmhof&lt;/li&gt;&lt;li&gt;Belzec&lt;/li&gt;&lt;li&gt;Sobibor&lt;/li&gt;&lt;li&gt;Majdanek&lt;/li&gt;&lt;li&gt;Maly Trostinez&lt;/li&gt;&lt;li&gt;Aktion Reinhardt&lt;/li&gt;&lt;li&gt;Theresienstadt&lt;/li&gt;&lt;li&gt;Todesmärsche&lt;/li&gt;&lt;li&gt;Sonderaktion 1005&lt;/li&gt;&lt;li&gt;Wichtige Personen in Lagern und für die Organisation&lt;/li&gt;&lt;ul&gt;&lt;li&gt;Eichmann&lt;/li&gt;&lt;li&gt;Himmler&lt;/li&gt;&lt;li&gt;Mengele&lt;/li&gt;&lt;li&gt;Rudolf Höß&lt;/li&gt;&lt;li&gt;Richard Baer&lt;/li&gt;&lt;li&gt;&lt;br&gt;&lt;/li&gt;&lt;/ul&gt;&lt;li&gt;Opfer&lt;/li&gt;&lt;ul&gt;&lt;li&gt;Anzahl&lt;/li&gt;&lt;li&gt;Sinti und Roma&lt;/li&gt;&lt;li&gt;Jüdische Bevölkerung&lt;/li&gt;&lt;li&gt;Zeugen Jehovas und andere Religiöse&lt;/li&gt;&lt;li&gt;Homosexuelle&lt;/li&gt;&lt;li&gt;Politische Gegner&lt;/li&gt;&lt;li&gt;Behinderte&lt;/li&gt;&lt;li&gt;Asoziale&lt;/li&gt;&lt;li&gt;Kriegsgefangene&lt;/li&gt;&lt;li&gt;Osteuropäische Bevölkerung&lt;/li&gt;&lt;/ul&gt;&lt;li&gt;Einsatzgruppen&lt;/li&gt;&lt;li&gt;Firmen&lt;/li&gt;&lt;li&gt;Wehrmacht&lt;/li&gt;&lt;/ul&gt;&lt;p&gt;&lt;/p&gt;" style="text;html=1;strokeColor=none;fillColor=none;spacing=5;spacingTop=-20;whiteSpace=wrap;overflow=hidden;rounded=0;" parent="1" vertex="1">
          <mxGeometry x="14" y="-1150" width="400" height="650" as="geometry" />
        </mxCell>
        <mxCell id="17SFfQUb2UGPVEqLALT_-4" style="edgeStyle=orthogonalEdgeStyle;rounded=0;orthogonalLoop=1;jettySize=auto;html=1;" edge="1" parent="1" source="17SFfQUb2UGPVEqLALT_-2" target="17SFfQUb2UGPVEqLALT_-3">
          <mxGeometry relative="1" as="geometry">
            <Array as="points">
              <mxPoint x="1120" y="370" />
              <mxPoint x="1120" y="-200" />
            </Array>
          </mxGeometry>
        </mxCell>
        <mxCell id="17SFfQUb2UGPVEqLALT_-2" value="Opfer&lt;br&gt;Durch die Deutschen starben im Zweiten Weltkrieg zwischen 10 und 20 Millionen Zivilisten aufgrund von Tötung bestimmter Bevölkerungsgruppen.&lt;br&gt;Von diesen waren circa 6 Millionen Juden.&lt;br&gt;Manche Historiker:in sind der Ansicht, dass alle verfolgten Gruppen, nicht nur die jüdische Bevölkerung in dem Begriff Holocaust mit eingeschlossen werden sollten.&lt;br&gt;Auch kamen unzählige Kriegsgefangene ums Leben.&lt;br&gt;Mehr über die einzelnen Gruppen:&lt;br&gt;&lt;ul&gt;&lt;li&gt;Jüdische Bevölkerung&lt;/li&gt;&lt;li&gt;Sinti und Roma&lt;/li&gt;&lt;li&gt;Zeugen Jehovas&lt;/li&gt;&lt;li&gt;Homosexuelle&lt;/li&gt;&lt;li&gt;Behinderte&lt;/li&gt;&lt;li&gt;&quot;Asoziale&quot;&lt;/li&gt;&lt;li&gt;Osteuropäische Bevölkerung&lt;/li&gt;&lt;li&gt;Kriegsgefangene&lt;/li&gt;&lt;/ul&gt;" style="rounded=0;whiteSpace=wrap;html=1;align=left;" vertex="1" parent="1">
          <mxGeometry x="800" y="190" width="250" height="359" as="geometry" />
        </mxCell>
        <mxCell id="17SFfQUb2UGPVEqLALT_-8" style="edgeStyle=orthogonalEdgeStyle;rounded=0;orthogonalLoop=1;jettySize=auto;html=1;" edge="1" parent="1" source="17SFfQUb2UGPVEqLALT_-3" target="17SFfQUb2UGPVEqLALT_-7">
          <mxGeometry relative="1" as="geometry" />
        </mxCell>
        <mxCell id="17SFfQUb2UGPVEqLALT_-3" value="Jüdische Bevölkerung - Geschichte&lt;br&gt;Anfang des 20. Jahrhunderts lebten rund 11 Millionen Juden in Europa. Die meisten davon im Osmanischen Reich, Russland sowie Österreich-Ungarn.&lt;br&gt;Im 19. Jahrhundert bekamen Juden in vielen Ländern gleiche Rechte zugesprochen. Die Osmanen, Russland und Rumänien gaben diese erst Anfang des 20. Jahrhunderts.&lt;br&gt;Mit der Moderne sahen sich auch immer mehr Juden mehr als Staatsbürger als Juden und übernahmen mehr und mehr die Kultur der Länder wo sie lebten. Damit ging auch ein Anfang einer Säkularisierung einher. Viele begannen sich politische im ganzen Spektrum zu beteiligen, achteten traditionelle Ruhetage nicht mehr oder Sprachen immer weniger Jiddisch.&lt;br&gt;&lt;ul&gt;&lt;li&gt;Der Erste Weltkrieg und Zwischenkriegszeit&lt;/li&gt;&lt;/ul&gt;" style="rounded=0;whiteSpace=wrap;html=1;align=left;" vertex="1" parent="1">
          <mxGeometry x="1260" y="-310" width="480" height="220" as="geometry" />
        </mxCell>
        <mxCell id="17SFfQUb2UGPVEqLALT_-12" style="edgeStyle=orthogonalEdgeStyle;rounded=0;orthogonalLoop=1;jettySize=auto;html=1;" edge="1" parent="1" source="17SFfQUb2UGPVEqLALT_-7" target="17SFfQUb2UGPVEqLALT_-11">
          <mxGeometry relative="1" as="geometry" />
        </mxCell>
        <mxCell id="17SFfQUb2UGPVEqLALT_-7" value="Jüdische Bevölkerung - Geschichte&lt;br&gt;Im Ersten Weltkrieg griffen hunderttausende Juden zu Waffen. Teils aus Patriotismus, teils aus dem Wunsch heraus so als vollwertiges Mitglied der Gesellschaft anerkannt zu werden. Das Ende des Ersten Weltkrieg brachte gewaltige Änderung an der Landkarte hervor. Ein großer Teil der jüdischen Bevölkerung lebte nun in Polen, wo auch, durch die Katholische gefordert, in den 30er Jahren Antisemitismus herrschte. Trotzdem gab es in der Zwischenkriegszeit eine große Anzahl an Intellektuellen, Künstler:innen und Wissenschaftler:innen jüdischer Herkunft.&lt;br&gt;&lt;ul&gt;&lt;li&gt;Staatlicher Antisemitismus in Deutschland ab 33&lt;/li&gt;&lt;/ul&gt;" style="rounded=0;whiteSpace=wrap;html=1;align=left;" vertex="1" parent="1">
          <mxGeometry x="1921" y="-310" width="560" height="220" as="geometry" />
        </mxCell>
        <mxCell id="17SFfQUb2UGPVEqLALT_-9" value="&lt;font style=&quot;font-size: 10px&quot;&gt;&lt;a href=&quot;https://de.wikipedia.org/wiki/Holocaust&quot;&gt;https://en.wikipedia.org/wiki/World_War_II_casualties&lt;/a&gt;&lt;br style=&quot;text-align: left&quot;&gt;&lt;br&gt;&lt;a href=&quot;https://de.wikipedia.org/wiki/Holocaust&quot;&gt;https://de.wikipedia.org/wiki/Holocaust&lt;/a&gt;&lt;br&gt;&lt;/font&gt;" style="rounded=0;whiteSpace=wrap;html=1;" vertex="1" parent="1">
          <mxGeometry x="800" y="100" width="250" height="60" as="geometry" />
        </mxCell>
        <mxCell id="17SFfQUb2UGPVEqLALT_-10" value="&lt;a href=&quot;https://www.bpb.de/geschichte/nationalsozialismus/gerettete-geschichten/149155/europaeisches-judentum-vor-dem-nationalsozialismus&quot;&gt;https://www.bpb.de/geschichte/nationalsozialismus/gerettete-geschichten/149155/europaeisches-judentum-vor-dem-nationalsozialismus&lt;/a&gt;" style="rounded=0;whiteSpace=wrap;html=1;" vertex="1" parent="1">
          <mxGeometry x="1260" y="-410" width="1220" height="60" as="geometry" />
        </mxCell>
        <mxCell id="17SFfQUb2UGPVEqLALT_-14" style="edgeStyle=orthogonalEdgeStyle;rounded=0;orthogonalLoop=1;jettySize=auto;html=1;" edge="1" parent="1" source="17SFfQUb2UGPVEqLALT_-11" target="17SFfQUb2UGPVEqLALT_-13">
          <mxGeometry relative="1" as="geometry" />
        </mxCell>
        <mxCell id="17SFfQUb2UGPVEqLALT_-11" value="Verdrängung des Judentums in Deutschland&lt;br&gt;Als die Nazis an die Macht kamen, hat sich kaum jemand gegen ihre klar antisemitische Politik ausgesprochen, denn es galt nicht als Falsch. Am 1. April 1933 wurde zum Boykott gegen jüdische Geschäfte aufgerufen. Zwar kaufte ein Großteil der Bevölkerung noch weiter wie zuvor ein, doch es Solidarisierte sich auch kaum jemand. Am 7. April wurde dann das erste klar antisemitische Gesetz erlassen. Das &quot;Gesetz zur Wiederherstellung des Berufsbeamtentums&quot; verbot es Juden beim Staat zu Arbeiten. Rund 5000 Juden wurden Arbeitslos. Auch wurden aktiv verhindert, dass Juden am Wiederaufschwung der Wirtschaft nach der Wirtschaftskrise haben konnten. Die rund 50000 jüdischen Arbeitslosen fanden kaum Arbeit und jüdischer Einzelhandel, welcher ein wichtiger Bestandteil ihrer Wirtschaft war, wurde zur Aufgabe und Veräußerung gezwungen. Auch medizinisches Personal wurde bis Januar 1935 verdrängt. Bis zu der Erlassung der Rassengesetzte gab es circa 2000 Erlasse welche an verschiedensten Stellen drangsalierten.&lt;br&gt;&lt;br&gt;&lt;ul&gt;&lt;li&gt;Die Nürnberger Gesetze&amp;nbsp;&lt;/li&gt;&lt;/ul&gt;" style="rounded=0;whiteSpace=wrap;html=1;align=left;" vertex="1" parent="1">
          <mxGeometry x="2640" y="-310" width="560" height="220" as="geometry" />
        </mxCell>
        <mxCell id="17SFfQUb2UGPVEqLALT_-16" style="edgeStyle=orthogonalEdgeStyle;rounded=0;orthogonalLoop=1;jettySize=auto;html=1;" edge="1" parent="1" source="17SFfQUb2UGPVEqLALT_-13" target="17SFfQUb2UGPVEqLALT_-15">
          <mxGeometry relative="1" as="geometry" />
        </mxCell>
        <mxCell id="17SFfQUb2UGPVEqLALT_-13" value="&lt;div&gt;Die Nürnberger Gesetze&lt;br&gt;&lt;/div&gt;&lt;div&gt;Die Nürnberger Gesetze wurden am 15. September 1935 erlassen. Das wichtigste dieser war wohl das Reichsbürgergesetz welches die Bevölkerung in Reichsbürger und Reichsangehöriger unterteilte. Dabei hatten letztere deutlich eingeschränkte Rechte. So durften diese zum Beispiel nicht bestimmte Berufe ausüben oder mussten bei der Auswanderung ein Großteil ihres Vermögens abgeben. Zu den Reichsangehörigen gehörten alle &quot;Halbjuden&quot; und &quot;Volljuden&quot;. &quot;Vierteljuden&quot; konnten mit Einschränkungen in die &quot;Volksgemeinschaft&quot; aufgenommen werden - auch aufgrund der Sorger der Wehrmacht mögliche Rekruten zu verlieren, denn es gab 308000 &quot;Vierteljuden&quot;.&amp;nbsp; &amp;nbsp;&lt;/div&gt;&lt;div&gt;&lt;ul&gt;&lt;li&gt;Auswanderung mit Hindernissen&lt;br&gt;&lt;/li&gt;&lt;/ul&gt;&lt;/div&gt;" style="rounded=0;whiteSpace=wrap;html=1;align=left;" vertex="1" parent="1">
          <mxGeometry x="3380" y="-310" width="560" height="220" as="geometry" />
        </mxCell>
        <mxCell id="17SFfQUb2UGPVEqLALT_-18" style="edgeStyle=orthogonalEdgeStyle;rounded=0;orthogonalLoop=1;jettySize=auto;html=1;" edge="1" parent="1" source="17SFfQUb2UGPVEqLALT_-15" target="17SFfQUb2UGPVEqLALT_-17">
          <mxGeometry relative="1" as="geometry" />
        </mxCell>
        <mxCell id="17SFfQUb2UGPVEqLALT_-15" value="&lt;div&gt;Auswanderung mit Hindernissen&amp;nbsp;&lt;/div&gt;&lt;div&gt;Mit zunehmender Diskriminierung stellten sich immer mehr die Frage, ob sie auswandern sollen. Es gab drei große Organisationen, die dabei die Auswanderungswillige berieten. Die größte war die zionistische Organisation, welche die Auswanderung nach Palästina von rund 55000 organisierte. Für eine Auswanderung musste man Allerdings Kapital mitbringen was zunehmend erschwert wurde. Bereits 1931 wurde im Zuge der Wirtschaftskrise es schwieriger Privatkapital ins Ausland zu transferieren. Um die Auswanderung von Juden zu ermöglichen, gab es Sonderkontos, auf die Geld gelegt wurde, welches später in Palästina abgehoben werden konnte. Allerdings bestimmte die NS-Regierung wie viel Geld dabei an Deutschland ging und wie viel ausgezahlt wurde. Während zu Anfang die Regierung noch circa 15 Prozent war es 1939 bereits 70 Prozent. Bei anderen Auswanderungszielen starte es 1936 mit 60 Prozent und ging auf annähernd 100 Prozent hoch.&lt;/div&gt;&lt;div&gt;Nach 1938 wurde auch noch eine Fluchsteuer eingeführt, wodurch ein zusätzliches Viertel des Vermögens erhoben wurde. Das größte Einwanderungsland war jedoch die USA mit rund 113000 Immigranten. Insgesamt flohen rund 3/5 der jüdischen Bevölkerung aus Deutschland.&lt;/div&gt;&lt;div&gt;Insgesamt verdiente die NS-Regierung so circa sieben Milliarden Reichsmark, welche in die Aufrüstung flossen.&lt;/div&gt;&lt;div&gt;&lt;ul&gt;&lt;li&gt;Reichspogromnacht&lt;/li&gt;&lt;/ul&gt;&lt;/div&gt;" style="rounded=0;whiteSpace=wrap;html=1;align=left;" vertex="1" parent="1">
          <mxGeometry x="4130" y="-340" width="560" height="280" as="geometry" />
        </mxCell>
        <mxCell id="17SFfQUb2UGPVEqLALT_-20" style="edgeStyle=orthogonalEdgeStyle;rounded=0;orthogonalLoop=1;jettySize=auto;html=1;" edge="1" parent="1" source="17SFfQUb2UGPVEqLALT_-17" target="17SFfQUb2UGPVEqLALT_-19">
          <mxGeometry relative="1" as="geometry" />
        </mxCell>
        <mxCell id="17SFfQUb2UGPVEqLALT_-17" value="&lt;div&gt;Reichspogromnacht&lt;/div&gt;&lt;div&gt;Ende 1938 verwies Deutschland rund 18000 Juden mit polnischer Staatsangehörigkeit. Da aber Polen drohte die Grenze zu schließen, waren 8000 von denen zur Rückreise gezwungen. Da Deutschland sie auch nicht aufnahm, waren sie ohne Unterstützung dem Winter ausgesetzt. Dies veranlasste den 17-jährigen Gerschel Grynszpan, der in Paris lebte, den Deutschen Botschafter Ernst vom Rath zu töten. Propagandaminister Goebbels nahm dies als Anlass am 9. November 1938 eine Vergeltung durchzuführen. Über 1000 Synagogen wurden in Brand gesteckt, 30000 Juden in Konzentrationslager gebracht und viele jüdische Betriebe &quot;Arisiert&quot;, also enteignet. Versicherungssummen wurden vom Staat einbehalten und die Juden, die noch in Deutschland lebten, mussten 1,2 Milliarden RM als &quot;Sühneleistung&quot; entrichten. Auch diese wurde protestlos von der Deutschen Bevölkerung hingenommen. Ab da ging es dem NS-Regime nicht mehr darum die Juden abzudrängen und auszuschließen, sondern umzusiedeln in Ghettos und &quot;Judenhäuser&quot; wo sie regelmäßig schikaniert worden sind. Auch die Menge an Lebensmittel wurde für die verbleibenden Juden gekürzt.&lt;/div&gt;&lt;div&gt;Von dem Begriff &quot;Reichskristallnacht&quot; ist abzuraten, da dieser der propagandistische Begriff der NS-Regierung war.&lt;/div&gt;&lt;div&gt;&lt;br&gt;&lt;/div&gt;&lt;div&gt;&lt;ul&gt;&lt;li&gt;Der Genozid an den Juden&lt;/li&gt;&lt;li&gt;Ghettos&lt;/li&gt;&lt;li&gt;Konzentrationslager&lt;/li&gt;&lt;/ul&gt;&lt;/div&gt;" style="rounded=0;whiteSpace=wrap;html=1;align=left;" vertex="1" parent="1">
          <mxGeometry x="4900" y="-375" width="560" height="350" as="geometry" />
        </mxCell>
        <mxCell id="17SFfQUb2UGPVEqLALT_-19" value="&lt;div&gt;&lt;/div&gt;Der Genozid an den Juden&lt;br&gt;Nach der Besetzung Polens begann ein schleichender Völkermord. Während 1940 noch kein Befehl zum Völkermord bekannt ist, wurden Soldaten und der SS freie Hand bei willkürlicher Tötung gelassen.&lt;br&gt;Nach der Wannensee-Konferenz im Januar 1942 begann das Planmäßige vernichten der Juden. Während Anfangs noch mit Erschießungen oder Kohlenmonoxid getötet wurde, wurden im Herbst 1942 die ersten Gaskammern in Auschwitz mit Zyklon B erbaut. Weitere Vernichtungslager wie Treblinka, Belzec, Chelmno oder Majdanek entstanden in Zuge der &quot;Aktion Reinhardt&quot;. Innerhalb von kurzer Zeit wurden so auf brutalste Weise Millionen von Juden umgebracht. Um weiter ein falsches Bild erzeugen zu können errichtete das NS-Regime das KZ Theresienstadt, ein Vorzeigelager. Dennoch waren sich die meisten Juden bei ihrer Deportation ihrem Schicksal bewusst. Mit dem Herannahen der Sowjets wurden die noch verbliebenen Häftlinge auf Todesmärsche in Landesinnere verschickt und Teile der Lager zerstört. Auf diesen Märschen kamen rund 200.000 Häftlinge um Leben, mehr als ein Viertel der Insassen am Kriegsende.&amp;nbsp;&lt;br&gt;Insgesamt starben circa 6 Millionen Juden im Holocaust. Der Großteil dieser war Polnisch, rund 3 Millionen. 160000 Deutsche Juden wurden ermordet. &lt;br&gt;Ein Teil der Verantwortlichen wurde bei den Nürnberger Prozessen verurteilt, ein anderer bei den Auschwitz Prozessen. Adolf Eichmann, welcher für die Deportation verantwortlich wurde 1961 nach Israel gebracht und verurteilt.&lt;br&gt;Es ist unmöglich das Leid dieser Leute in einem Text oder an Hand von Zahlen zu begreifen. Wir sollten die Erinnerung an das unsägliche Leid, was dadurch hervorgerufen worden ist immer erinnern und daraus lernen.&lt;br&gt;Ein Besuch bei Denkmälern, Konzentrationslagern, Vernichtungslagern und Museen über das Thema ist unbedingt zu empfehlen, damit die Erinnerung wach bleibt.&lt;br&gt;&lt;ul&gt;&lt;li&gt;Vernichtungslager&lt;/li&gt;&lt;li&gt;Adolf Eichmann&lt;/li&gt;&lt;li&gt;Todesmärsche&lt;/li&gt;&lt;li&gt;Aktion Reinhardt&lt;/li&gt;&lt;li&gt;Die Wehrmacht und Verbrechen&lt;/li&gt;&lt;li&gt;Auschwitz Prozesse&lt;/li&gt;&lt;li&gt;Nürnberger Prozesse&lt;/li&gt;&lt;/ul&gt;" style="rounded=0;whiteSpace=wrap;html=1;align=left;" vertex="1" parent="1">
          <mxGeometry x="5850" y="-432.5" width="560" height="465" as="geometry" />
        </mxCell>
        <mxCell id="17SFfQUb2UGPVEqLALT_-21" value="&lt;a href=&quot;https://www.bpb.de/izpb/7687/1933-1945-verdraengung-und-vernichtung?p=0&quot;&gt;https://www.bpb.de/izpb/7687/1933-1945-verdraengung-und-vernichtung?p=0&lt;/a&gt;" style="rounded=0;whiteSpace=wrap;html=1;" vertex="1" parent="1">
          <mxGeometry x="2640" y="-584" width="3760" height="60" as="geometry" />
        </mxCell>
      </root>
    </mxGraphModel>
  </diagram>
</mxfile>
